<svg xmlns="http://www.w3.org/2000/svg" width="31" height="30" viewBox="0 0 31 30">
    <path fill="white"
          d="M21.735 27.058c0 1.48-1.225 2.686-2.732 2.686-1.506 0-2.732-1.205-2.732-2.686 0-1.482 1.226-2.687 2.732-2.687 1.507 0 2.732 1.205 2.732 2.687zm-3.157 0c0 .23.19.418.425.418a.423.423 0 0 0 .426-.418.423.423 0 0 0-.426-.419.422.422 0 0 0-.425.419zm-7.75 0c0 1.48-1.226 2.686-2.733 2.686-1.506 0-2.732-1.205-2.732-2.686 0-1.482 1.226-2.687 2.732-2.687 1.507 0 2.733 1.205 2.733 2.687zm-3.158 0c0 .23.191.418.425.418a.422.422 0 0 0 .426-.418.422.422 0 0 0-.426-.419.422.422 0 0 0-.425.419zm16.074-16.669v6.21c0 .754-.299 1.464-.842 1.998a2.881 2.881 0 0 1-1.964.827l-13.17 1.127a1.112 1.112 0 0 1-.104.005c-.022 0-.044-.002-.067-.004a.847.847 0 0 1-.076.004.565.565 0 0 0-.569.559c0 .308.256.56.57.56h13.347c.636 0 1.153.508 1.153 1.134 0 .624-.517 1.134-1.153 1.134H7.52c-1.586 0-2.876-1.269-2.876-2.828 0-1.096.638-2.047 1.566-2.516L2.887 7.639c-.387-.921-.438-.921-.896-.921-.068 0-.145.003-.228.008-.025.002-.048.002-.071.002a1.15 1.15 0 0 1-1.155-1.06 1.142 1.142 0 0 1 1.076-1.205c.117-.008.23-.011.338-.011 1.939 0 2.573 1.138 3.101 2.406l.011.026.206.677h15.6c1.585 0 2.875 1.269 2.875 2.828zm-2.875-.56H5.957l2.545 8.382 12.249-1.048h.018l.027-.003h.016a.817.817 0 0 1 .061-.003h.001a.564.564 0 0 0 .564-.558v-6.21a.565.565 0 0 0-.57-.56zm10.184-4.455c0 .605-.498 1.095-1.113 1.095h-2.99v2.94c0 .603-.498 1.094-1.112 1.094-.615 0-1.113-.49-1.113-1.094V6.47h-2.99c-.615 0-1.113-.49-1.113-1.095 0-.604.498-1.094 1.113-1.094h2.99V1.34c0-.604.498-1.094 1.113-1.094.614 0 1.112.49 1.112 1.094v2.94h2.99c.615 0 1.113.49 1.113 1.094z"></path>
</svg>
