<svg xmlns="http://www.w3.org/2000/svg" width="30" height="38" viewBox="0 0 15 19">
    <path fill="#fff"
          d="M10.207 7.241h.948v8.164h-.948zm-3.183 0h.948v8.164h-.948zm-3.182 0h.947v8.164h-.947zM14.05 3.435a.248.248 0 00-.247-.249H1.192a.249.249 0 00-.248.25v.65h13.107zM5.865 2.237H9.13V1.198A.248.248 0 008.884.95H6.112a.248.248 0 00-.247.248zm9.133 2.8H-.003V3.434c0-.66.536-1.198 1.195-1.198h3.725V1.198C4.917.538 5.453 0 6.112 0h2.772c.659 0 1.195.537 1.195 1.198v1.039h3.725c.659 0 1.194.537 1.194 1.198zm-1.608.722h.948v11.436c0 .996-.808 1.805-1.801 1.805H2.459c-.993 0-1.8-.81-1.8-1.805V5.759h.947v11.436c0 .471.383.855.853.855h10.078c.47 0 .853-.384.853-.855z"/>
</svg>
